<svg width="249" height="54" viewBox="0 0 249 54" fill="none" xmlns="http://www.w3.org/2000/svg">
<path fill-rule="evenodd" clip-rule="evenodd" d="M52.7497 26.786C52.7497 41.3524 40.9413 53.1608 26.3748 53.1608C11.8084 53.1608 0 41.3524 0 26.786C0 12.2196 11.8084 0.411133 26.3748 0.411133C40.9413 0.411133 52.7497 12.2196 52.7497 26.786ZM26.0848 7.58448L44.4168 38.1619H36.229L22.1721 14.2506L26.0848 7.58448ZM18.1148 21.2793L8.26044 38.1621H16.0859L26.1955 21.2793H18.1148ZM18.6942 38.162L23.404 30.1916H31.5194L26.8096 38.162H18.6942ZM80.4128 37.9895H77.0854L75.2956 33.7545H67.9854L66.1956 37.9895H62.9438L71.4641 19.2601H71.9178L80.4128 37.9895ZM74.2621 31.259L71.6405 25.0831L69.0189 31.259H74.2621ZM94.1895 37.9895H82.846V20.344H85.6188V35.4687H94.1895V37.9895ZM97.4685 37.9895H108.812V35.4687H100.241V20.344H97.4685V37.9895ZM125.456 32.9479C125.456 31.1749 123.654 30.6684 121.633 30.1008C119.058 29.3772 116.129 28.5542 116.129 24.8814C116.129 22.2346 118.272 20.0919 121.927 20.0919C125.456 20.0919 127.221 22.3606 127.221 22.3606L125.456 24.1252C125.456 24.1252 124.322 22.6127 121.927 22.6127C120.036 22.6127 118.902 23.747 118.902 24.8814C118.902 26.6544 120.704 27.1609 122.725 27.7285C125.3 28.4521 128.229 29.2751 128.229 32.9479C128.229 35.9728 125.96 38.2415 121.927 38.2415C117.642 38.2415 115.625 35.4687 115.625 35.4687L117.39 33.7041C117.39 33.7041 118.776 35.7208 121.927 35.7208C124.196 35.7208 125.456 34.4604 125.456 32.9479ZM143.854 30.9313C143.854 33.5781 141.711 35.7208 139.19 35.7208C136.67 35.7208 134.527 33.5781 134.527 30.9313V20.344H131.754V30.9313C131.754 34.9645 135.031 38.2415 139.19 38.2415C143.35 38.2415 146.627 34.9645 146.627 30.9313V20.344H143.854V30.9313ZM151.404 37.9895V20.344H158.841C162.118 20.344 164.512 22.7387 164.512 25.7637C164.512 29.6709 160.983 30.9313 160.983 30.9313L165.017 37.9895H161.992L158.21 31.1833H154.177V37.9895H151.404ZM161.74 25.7637C161.74 24.1252 160.479 22.8648 158.841 22.8648H154.177V28.6626H158.841C160.479 28.6626 161.74 27.4022 161.74 25.7637ZM181.407 20.344H169.055V37.9895H171.828V30.3011H179.39V27.7803H171.828V22.8648H181.407V20.344ZM199.805 37.9895H196.478L194.688 33.7545H187.378L185.588 37.9895H182.336L190.857 19.2601H191.31L199.805 37.9895ZM193.655 31.259L191.033 25.0831L188.411 31.259H193.655ZM217.741 23.495C217.741 23.495 215.346 20.0919 210.557 20.0919C205.263 20.0919 201.23 24.1252 201.23 29.1667C201.23 34.2083 205.263 38.2415 210.557 38.2415C215.346 38.2415 217.867 34.7124 217.867 34.7124L216.103 32.9479C216.103 32.9479 214.212 35.7208 210.557 35.7208C206.902 35.7208 204.003 32.8219 204.003 29.1667C204.003 25.5116 206.902 22.6127 210.557 22.6127C214.212 22.6127 215.977 25.2595 215.977 25.2595L217.741 23.495ZM224.163 35.4687H234.12V37.9895H221.39V20.344H233.868V22.8648H224.163V27.5282H231.852V30.049H224.163V35.4687ZM242.404 30.1008C244.425 30.6684 246.227 31.1749 246.227 32.9479C246.227 34.4604 244.967 35.7208 242.698 35.7208C239.547 35.7208 238.161 33.7041 238.161 33.7041L236.396 35.4687C236.396 35.4687 238.413 38.2415 242.698 38.2415C246.731 38.2415 249 35.9728 249 32.9479C249 29.2751 246.071 28.4521 243.496 27.7285C241.475 27.1609 239.673 26.6544 239.673 24.8814C239.673 23.747 240.807 22.6127 242.698 22.6127C245.093 22.6127 246.227 24.1252 246.227 24.1252L247.992 22.3606C247.992 22.3606 246.227 20.0919 242.698 20.0919C239.043 20.0919 236.9 22.2346 236.9 24.8814C236.9 28.5542 239.829 29.3772 242.404 30.1008Z" fill="white"/>
</svg>
