<svg width="249" height="53" viewBox="0 0 249 53" fill="none" xmlns="http://www.w3.org/2000/svg">
<path id="Union" fill-rule="evenodd" clip-rule="evenodd" d="M52.7497 26.3748C52.7497 40.9413 40.9413 52.7497 26.3748 52.7497C11.8084 52.7497 0 40.9413 0 26.3748C0 11.8084 11.8084 0 26.3748 0C40.9413 0 52.7497 11.8084 52.7497 26.3748ZM26.0848 7.17334L44.4168 37.7508H36.229L22.1721 13.8395L26.0848 7.17334ZM18.1148 20.8682L8.26044 37.751H16.0859L26.1955 20.8682H18.1148ZM18.6943 37.7508L23.4041 29.7804H31.5195L26.8097 37.7508H18.6943ZM80.219 37.5785H76.8916L75.1018 33.3436H67.7916L66.0018 37.5785H62.75L71.2702 18.8491H71.724L80.219 37.5785ZM74.0683 30.848L71.4467 24.6721L68.8251 30.848H74.0683ZM93.9957 37.5785H82.6522V19.9331H85.425V35.0577H93.9957V37.5785ZM97.2747 37.5785H108.618V35.0577H100.048V19.9331H97.2747V37.5785ZM125.262 32.537C125.262 30.7639 123.46 30.2575 121.44 29.6898C118.864 28.9663 115.935 28.1433 115.935 24.4705C115.935 21.8236 118.078 19.681 121.733 19.681C125.262 19.681 127.027 21.9497 127.027 21.9497L125.262 23.7142C125.262 23.7142 124.128 22.2018 121.733 22.2018C119.843 22.2018 118.708 23.3361 118.708 24.4705C118.708 26.2435 120.511 26.75 122.531 27.3176C125.106 28.0412 128.035 28.8641 128.035 32.537C128.035 35.5619 125.766 37.8306 121.733 37.8306C117.448 37.8306 115.431 35.0577 115.431 35.0577L117.196 33.2932C117.196 33.2932 118.582 35.3098 121.733 35.3098C124.002 35.3098 125.262 34.0494 125.262 32.537ZM143.66 30.5203C143.66 33.1672 141.517 35.3098 138.997 35.3098C136.476 35.3098 134.333 33.1672 134.333 30.5203V19.9331H131.56V30.5203C131.56 34.5536 134.837 37.8306 138.997 37.8306C143.156 37.8306 146.433 34.5536 146.433 30.5203V19.9331H143.66V30.5203ZM151.211 37.5785V19.9331H158.647C161.924 19.9331 164.319 22.3278 164.319 25.3527C164.319 29.2599 160.789 30.5203 160.789 30.5203L164.823 37.5785H161.798L158.017 30.7724H153.983V37.5785H151.211ZM161.546 25.3527C161.546 23.7142 160.285 22.4538 158.647 22.4538H153.983V28.2516H158.647C160.285 28.2516 161.546 26.9912 161.546 25.3527ZM181.213 19.9331H168.861V37.5785H171.634V29.8901H179.196V27.3694H171.634V22.4538H181.213V19.9331ZM199.611 37.5785H196.284L194.494 33.3436H187.184L185.394 37.5785H182.142L190.663 18.8491H191.116L199.611 37.5785ZM193.461 30.848L190.839 24.6721L188.218 30.848H193.461ZM217.547 23.084C217.547 23.084 215.153 19.681 210.363 19.681C205.07 19.681 201.036 23.7142 201.036 28.7558C201.036 33.7974 205.07 37.8306 210.363 37.8306C215.153 37.8306 217.673 34.3015 217.673 34.3015L215.909 32.537C215.909 32.537 214.018 35.3098 210.363 35.3098C206.708 35.3098 203.809 32.4109 203.809 28.7558C203.809 25.1007 206.708 22.2018 210.363 22.2018C214.018 22.2018 215.783 24.8486 215.783 24.8486L217.547 23.084ZM223.97 35.0577H233.927V37.5785H221.197V19.9331H233.675V22.4538H223.97V27.1173H231.658V29.6381H223.97V35.0577ZM242.211 29.6898C244.231 30.2575 246.033 30.7639 246.033 32.537C246.033 34.0494 244.773 35.3098 242.504 35.3098C239.353 35.3098 237.967 33.2932 237.967 33.2932L236.202 35.0577C236.202 35.0577 238.219 37.8306 242.504 37.8306C246.537 37.8306 248.806 35.5619 248.806 32.537C248.806 28.8641 245.877 28.0412 243.302 27.3176C241.282 26.75 239.479 26.2435 239.479 24.4705C239.479 23.3361 240.614 22.2018 242.504 22.2018C244.899 22.2018 246.033 23.7142 246.033 23.7142L247.798 21.9497C247.798 21.9497 246.033 19.681 242.504 19.681C238.849 19.681 236.706 21.8236 236.706 24.4705C236.706 28.1433 239.635 28.9663 242.211 29.6898Z" fill="white" fill-opacity="0.44"/>
</svg>
