<svg width="108" height="108" viewBox="0 0 108 108" fill="none" xmlns="http://www.w3.org/2000/svg">
<g id="np_improve_3522335_000000 1">
<path id="Vector" d="M100.44 98.2799H96.1199V31.3199C96.1199 30.1302 95.1496 29.1599 93.9599 29.1599H74.5199C73.3302 29.1599 72.3599 30.1302 72.3599 31.3199V98.2799H65.8799V55.0799C65.8799 53.8902 64.9096 52.9199 63.7199 52.9199H44.2799C43.0902 52.9199 42.1199 53.8902 42.1199 55.0799V98.2799H35.6399V46.4399C35.6399 45.2502 34.6696 44.2799 33.4799 44.2799H14.0399C12.8502 44.2799 11.8799 45.2502 11.8799 46.4399V98.2799H7.5599C6.37017 98.2799 5.3999 99.2502 5.3999 100.44C5.3999 101.63 6.37022 102.6 7.5599 102.6H100.44C101.63 102.6 102.6 101.63 102.6 100.44C102.6 99.2502 101.63 98.2799 100.44 98.2799ZM16.1999 98.2799V48.5999H31.3199V98.2799H16.1999ZM46.4399 98.2799V57.2399H61.5599V98.2799H46.4399ZM76.6799 98.2799V33.4799H91.7999V98.2799H76.6799ZM21.5999 35.6399C21.5999 34.4502 22.5702 33.4799 23.7599 33.4799C47.8655 33.4799 69.7992 17.2043 78.612 9.7199H71.2798C70.0901 9.7199 69.1198 8.74959 69.1198 7.5599C69.1198 6.37022 70.0901 5.3999 71.2798 5.3999H84.2398C84.379 5.3999 84.5224 5.41256 84.6617 5.44209C84.7249 5.45475 84.7924 5.47584 84.8473 5.49693C84.9232 5.51803 84.9865 5.53912 85.0624 5.56022C85.1384 5.59397 85.2017 5.63615 85.2776 5.6699C85.3324 5.70365 85.3873 5.72474 85.4379 5.75428C85.6742 5.91459 85.8809 6.1213 86.0328 6.34912C86.0665 6.40396 86.0876 6.4588 86.1171 6.50943C86.1509 6.57271 86.1931 6.64021 86.2268 6.71616C86.2606 6.7921 86.269 6.85538 86.2901 6.93131C86.3112 6.99459 86.3323 7.04944 86.3449 7.11694C86.3871 7.27726 86.3998 7.42069 86.3998 7.55992V20.5199C86.3998 21.7096 85.4295 22.6799 84.2398 22.6799C83.0501 22.6799 82.0798 21.7096 82.0798 20.5199V12.4748C73.3301 20.0981 50.1561 37.7997 23.7598 37.7997C22.5701 37.7997 21.5999 36.8296 21.5999 35.6399Z" fill="#25578F"/>
</g>
</svg>
