<svg width="26" height="24" viewBox="0 0 26 24" fill="none" xmlns="http://www.w3.org/2000/svg">
<path fill-rule="evenodd" clip-rule="evenodd" d="M25.3672 8.27849C25.3628 8.17166 25.3586 8.06466 25.3544 7.95756C25.3171 7.00563 25.2794 6.04543 25.0883 5.11749C24.6193 2.83932 23.1999 1.27045 20.8477 0.492568C19.6064 0.0819711 18.3114 0.0395859 17.0214 0.0247897C14.5754 -0.0031075 12.1285 -0.012201 9.68285 0.0226319C8.58137 0.0381988 7.46354 0.087828 6.38509 0.280334C3.95368 0.714358 2.28683 2.05727 1.45544 4.28288C1.02129 5.44501 0.975699 6.65861 0.959686 7.86682C0.928803 10.1824 0.919816 12.4988 0.956908 14.8141C0.973902 15.8614 1.02194 16.9257 1.23306 17.9496C1.70267 20.2282 3.12181 21.7974 5.47397 22.5754C6.71516 22.986 8.01028 23.0248 9.3005 23.0433C11.3181 23.0724 13.3365 23.0669 15.3544 23.0614H15.3546L15.6483 23.0606L15.8528 23.0601H15.8528C17.1315 23.0571 18.4121 23.0542 19.6786 22.8531C21.4896 22.5658 22.984 21.7705 24.0517 20.337C24.9605 19.1166 25.2685 17.7165 25.3176 16.2595C25.3543 15.1658 25.3704 14.0715 25.3866 12.9771V12.977V12.9768C25.3937 12.4971 25.4007 12.0174 25.4096 11.5377L25.4096 11.3769V11.3768C25.4097 10.3439 25.4098 9.30954 25.3672 8.27849ZM22.8312 17.8949C22.3492 19.5491 21.141 20.5036 19.3789 20.7669C18.3362 20.9227 17.2667 20.956 16.2081 20.9719C14.1817 21.0021 12.1542 20.9996 10.1279 20.9733C9.99276 20.9715 9.85749 20.9702 9.72216 20.9689C8.70836 20.9593 7.69095 20.9496 6.69337 20.7321C4.65184 20.2869 3.51114 18.9551 3.31832 17.0709C3.18692 15.7848 3.16936 14.4865 3.15185 13.1916L3.14659 12.8108C3.12404 11.2365 3.13858 9.6612 3.17044 8.08678L3.17428 7.88592V7.88592C3.19162 6.95424 3.20901 6.01929 3.50231 5.11211C4.02781 3.48699 5.2177 2.55498 6.9571 2.29974C8.00058 2.14685 9.06939 2.11186 10.1281 2.09614C12.1544 2.06593 14.1817 2.06793 16.2082 2.09475C16.3285 2.09635 16.4488 2.09761 16.5692 2.09887C17.5886 2.10958 18.6112 2.12032 19.6163 2.33288C21.4475 2.7202 22.6992 3.93304 22.9559 5.68794C23.0979 6.65925 23.134 7.64737 23.1691 8.62931C23.1931 9.30171 23.1874 9.975 23.1816 10.6483C23.1791 10.9438 23.1766 11.2392 23.1766 11.5346C23.1627 12.1501 23.1574 12.7658 23.152 13.3815V13.3816V13.3817C23.1437 14.3318 23.1355 15.2818 23.0959 16.2307C23.0727 16.7887 22.9879 17.3573 22.8312 17.8949ZM18.2061 5.37962C18.2067 4.61422 18.8711 3.99709 19.6933 3.99817C20.5267 3.99925 21.1535 4.59865 21.1502 5.39118C21.1471 6.15041 20.4894 6.77478 19.6925 6.77524C18.8856 6.77555 18.2056 6.137 18.2061 5.37962ZM6.87739 11.4786C6.90745 8.25537 9.74685 5.57092 13.2328 5.60791C16.6554 5.64428 19.4356 8.27294 19.4355 11.5388C19.4355 14.8345 16.6487 17.4428 13.1423 17.456C9.6962 17.469 6.847 14.7596 6.87739 11.4786ZM9.09938 11.4814C9.08745 13.5957 10.9295 15.3434 13.1714 15.3445C15.4025 15.3454 17.2422 13.6141 17.2466 11.5093C17.2512 9.40514 15.416 7.66426 13.1879 7.65933C10.9533 7.65425 9.11114 9.37632 9.09938 11.4814Z" fill="white"/>
</svg>
