<svg width="58" height="58" viewBox="0 0 58 58" fill="none" xmlns="http://www.w3.org/2000/svg">
<g id="np_tile_6064844_000000 1" clip-path="url(#clip0_1292_467)">
<g id="Group">
<path id="Vector" d="M20.844 46.219C20.3433 46.219 19.9377 46.6246 19.9377 47.1253V52.5628H16.3127C15.812 52.5628 15.4065 52.9683 15.4065 53.469C15.4065 53.9697 15.812 54.3753 16.3127 54.3753H20.844C21.3447 54.3753 21.7502 53.9697 21.7502 53.469V47.125C21.7502 46.6243 21.3447 46.219 20.844 46.219Z" fill="#25578F"/>
<path id="Vector_2" d="M38.969 53.469C38.969 53.9697 39.3745 54.3753 39.8752 54.3753H44.4065C44.9072 54.3753 45.3127 53.9697 45.3127 53.469V47.125C45.3127 46.6243 44.9072 46.2188 44.4065 46.2188C43.9058 46.2188 43.5002 46.6243 43.5002 47.125V52.5625H39.8752C39.3745 52.5625 38.969 52.9683 38.969 53.469Z" fill="#25578F"/>
<path id="Vector_3" d="M20.844 24.469C20.3433 24.469 19.9377 24.8746 19.9377 25.3753V30.8128H16.3127C15.812 30.8128 15.4065 31.2183 15.4065 31.719C15.4065 32.2197 15.812 32.6253 16.3127 32.6253H20.844C21.3447 32.6253 21.7502 32.2197 21.7502 31.719V25.375C21.7502 24.8743 21.3447 24.469 20.844 24.469Z" fill="#25578F"/>
<path id="Vector_4" d="M28.094 13.5942C28.5947 13.5942 29.0002 13.1887 29.0002 12.688V8.15674C29.0002 7.65604 28.5947 7.25049 28.094 7.25049C27.5933 7.25049 27.1877 7.65604 27.1877 8.15674V12.688C27.1877 13.1887 27.5933 13.5942 28.094 13.5942Z" fill="#25578F"/>
<path id="Vector_5" d="M51.656 39.875C51.1553 39.875 50.7498 40.2805 50.7498 40.7813V45.3125C50.7498 45.8132 51.1553 46.2188 51.656 46.2188C52.1567 46.2188 52.5623 45.8132 52.5623 45.3125V40.7813C52.5623 40.2805 52.1567 39.875 51.656 39.875Z" fill="#25578F"/>
<path id="Vector_6" d="M56.3232 37.2558L54.3748 35.7967V33.8483C54.3748 32.7653 54.0735 31.7073 53.5048 30.7897C52.9361 29.8699 52.1228 29.1267 51.1553 28.6442C49.7869 27.9599 48.9373 26.587 48.9373 25.0599V24.1605C49.3791 23.9475 49.7438 23.6937 50.2128 23.227C51.3728 22.067 52.0095 20.5264 52.0095 18.8883C52.0095 17.2661 51.3728 15.7301 50.2106 14.5587L48.9962 13.3512C48.9962 13.3512 56.3459 9.35011 56.4091 9.28892C57.4332 8.25809 57.9973 6.89189 57.9973 5.4419C57.9973 3.99189 57.4332 2.62344 56.4091 1.59487C55.3896 0.570823 54.0302 0.00439453 52.5847 0.00439453C51.1393 0.00439453 49.7708 0.568537 48.7513 1.59487C48.6878 1.65831 44.7094 9.06701 44.7094 9.06701L43.4973 7.85493C41.9703 6.3279 39.7794 5.73433 37.7222 6.2282C37.0335 4.92094 35.2867 2.721 31.2924 2.721H20.3901C18.6818 2.721 17.0551 3.53433 16.0401 4.89826C15.3627 5.80451 14.2797 6.346 13.1401 6.346C9.54456 6.346 6.60176 9.15308 6.36569 12.69L0.905518 12.6878C0.404815 12.6878 -0.000732422 13.0933 -0.000732422 13.594V57.094C-0.000732422 57.5947 0.404815 58.0003 0.905518 58.0003H48.0305C48.5312 58.0003 48.9368 57.5947 48.9368 57.094V56.0496L50.2553 55.8321C51.4086 55.6372 52.4575 55.0413 53.2074 54.1555C53.9596 53.2674 54.3719 52.1346 54.3719 50.97C54.3719 50.0728 54.8862 49.2391 55.6815 48.8449C57.1088 48.1357 57.9969 46.6993 57.9969 45.0975V40.6116C57.9969 39.3088 57.3716 38.056 56.3204 37.2585L56.3232 37.2558ZM44.9315 11.8489L46.2138 13.1312L43.0125 16.3325C42.6613 16.6837 42.0722 16.6746 41.7301 16.3325C41.3767 15.9791 41.3767 15.4036 41.7301 15.0502L44.9315 11.8489ZM50.1265 2.78172C50.7926 2.15643 51.6603 1.81428 52.5847 1.81428C53.5453 1.81428 54.4471 2.19038 55.1245 2.87006C55.8087 3.55881 56.1848 4.46958 56.1848 5.43929C56.1848 6.36595 55.8404 7.24048 55.2106 7.91786L47.6572 12.0141L46.0464 10.4033L50.1245 2.78149L50.1265 2.78172ZM42.2147 9.13447L43.6489 10.5686L40.4453 13.7699C39.385 14.8302 39.385 16.5567 40.4453 17.617C40.9619 18.1335 41.6461 18.4167 42.3734 18.4167C43.0938 18.4167 43.7758 18.1335 44.2924 17.617L47.4959 14.4134L48.9255 15.8362C49.7434 16.6609 50.1943 17.7439 50.1943 18.8857C50.1943 20.0412 49.7457 21.1264 48.9278 21.942C48.4928 22.3748 48.2775 22.4948 47.7021 22.7168L31.5798 28.9362C30.7981 29.2171 30.0754 29.0223 29.5566 28.5035C29.0287 27.9756 28.8588 27.1871 29.1193 26.4916L35.1275 10.6523C35.345 10.0814 35.6849 9.55352 36.1086 9.12983C36.53 8.70843 37.0148 8.38673 37.5518 8.16924C39.1581 7.52805 40.9865 7.90416 42.2122 9.12983L42.2147 9.13447ZM1.81194 14.4995H23.5619V34.437H1.81194V14.4995ZM1.81194 36.2495H23.5619V56.187H1.81194V36.2495ZM47.1244 56.187H25.3744V36.2495H47.1244V56.187ZM56.1869 45.0945C56.1869 45.9917 55.6726 46.8254 54.8774 47.2196C53.4501 47.9288 52.5619 49.3652 52.5619 50.967C52.5619 51.7055 52.2991 52.4215 51.8256 52.9834C51.3521 53.5453 50.6883 53.9214 49.9587 54.0437L48.9392 54.2136V35.3456C48.9392 34.8449 48.5337 34.4394 48.033 34.4394H45.3142V29.0019C45.3142 28.5012 44.9087 28.0956 44.408 28.0956C43.9072 28.0956 43.5017 28.5012 43.5017 29.0019V34.4394H40.783V31.7206C40.783 31.2199 40.3774 30.8144 39.8767 30.8144C39.376 30.8144 38.9705 31.2199 38.9705 31.7206V34.4394H36.2517V32.6269C36.2517 32.1262 35.8462 31.7206 35.3455 31.7206C34.8447 31.7206 34.4392 32.1262 34.4392 32.6269V34.4394H25.3767L25.3744 13.5936C25.3744 13.0929 24.9689 12.6874 24.4682 12.6874H23.5619V9.06235C23.5619 8.56165 23.1564 8.1561 22.6557 8.1561C22.155 8.1561 21.7494 8.56165 21.7494 9.06235V12.6874H19.0307V9.9686C19.0307 9.4679 18.6251 9.06235 18.1244 9.06235C17.6237 9.06235 17.2182 9.4679 17.2182 9.9686V12.6874H8.17831C8.4094 10.1499 10.5436 8.1561 13.14 8.1561C14.8483 8.1561 16.475 7.34277 17.49 5.97884C18.1675 5.07259 19.2505 4.5311 20.39 4.5311H31.2923C34.1923 4.5311 35.495 5.97658 36.0388 6.91682C35.6038 7.1751 35.196 7.48322 34.829 7.85027C34.2263 8.45295 33.746 9.19831 33.4356 10.0094L27.4274 25.8504C26.9154 27.2098 27.2484 28.7549 28.277 29.7835C28.9793 30.4858 29.9128 30.8733 30.9028 30.8733C31.3378 30.8733 31.7593 30.7962 32.2169 30.6308L47.1246 24.8807V25.0551C47.1246 27.2731 48.3571 29.2692 50.3441 30.2615C51.0101 30.5946 51.572 31.1066 51.964 31.741C52.356 32.3731 52.5621 33.1004 52.5621 33.848V36.2496C52.5621 36.535 52.6958 36.8024 52.9246 36.9746L55.231 38.7033C55.8291 39.1564 56.1871 39.87 56.1871 40.6087L56.1869 45.0945Z" fill="#25578F"/>
<path id="Vector_7" d="M13.594 53.4691C13.594 54.6767 11.7815 54.6767 11.7815 53.4691C11.7815 52.2616 13.594 52.2616 13.594 53.4691Z" fill="#25578F"/>
<path id="Vector_8" d="M37.156 53.4691C37.156 54.6767 35.3435 54.6767 35.3435 53.4691C35.3435 52.2616 37.156 52.2616 37.156 53.4691Z" fill="#25578F"/>
<path id="Vector_9" d="M13.594 31.7191C13.594 32.9267 11.7815 32.9267 11.7815 31.7191C11.7815 30.5116 13.594 30.5116 13.594 31.7191Z" fill="#25578F"/>
<path id="Vector_10" d="M29 16.3129C29 17.5205 27.1875 17.5205 27.1875 16.3129C27.1875 15.1053 29 15.1053 29 16.3129Z" fill="#25578F"/>
<path id="Vector_11" d="M53.4232 5.4379C53.4232 6.64546 51.6198 6.64546 51.6198 5.4379C51.6198 4.23034 53.4232 4.23034 53.4232 5.4379Z" fill="#25578F"/>
</g>
</g>
<defs>
<clipPath id="clip0_1292_467">
<rect width="58" height="58" fill="white"/>
</clipPath>
</defs>
</svg>
