<svg width="119" height="119" viewBox="0 0 119 119" fill="none" xmlns="http://www.w3.org/2000/svg">
<g id="np_people_5282025_000000 2">
<g id="Group">
<path id="Vector" fill-rule="evenodd" clip-rule="evenodd" d="M34.0875 74.3941C33.5018 73.5481 32.8417 72.7532 32.1072 72.0187C28.8533 68.7648 24.442 66.938 19.8395 66.938H19.8302C15.2283 66.938 10.8123 68.7649 7.56252 72.0187C4.30394 75.2727 2.47717 79.684 2.47717 84.2864V94.2108C2.47717 98.3154 5.81012 101.648 9.91467 101.648H109.085C113.189 101.648 116.522 98.3154 116.522 94.2108V84.2864C116.522 79.6845 114.695 75.2731 111.437 72.0187C108.187 68.7648 103.771 66.938 99.169 66.938H99.1597C94.5577 66.938 90.1464 68.7649 86.8919 72.0187C86.1575 72.7532 85.4974 73.5481 84.9117 74.3941C83.5497 70.9078 81.4811 67.705 78.7804 65.0089C73.6671 59.8956 66.7317 57.0229 59.4989 57.0229C52.266 57.0229 45.3307 59.8957 40.2173 65.0089C37.5166 67.705 35.448 70.9078 34.0861 74.3941H34.0875ZM99.1698 71.8978H99.1605C95.8741 71.8978 92.7224 73.2041 90.3982 75.5236C88.0786 77.8478 86.7724 80.9995 86.7724 84.286V94.2103C86.7724 95.5769 87.8833 96.6879 89.2499 96.6879H109.085C110.451 96.6879 111.562 95.5769 111.562 94.2103V84.286C111.562 80.9995 110.256 77.8478 107.932 75.5236C105.608 73.2041 102.461 71.8978 99.1698 71.8978ZM19.8396 71.8978H19.8303C16.5393 71.8978 13.3922 73.2041 11.068 75.5236C8.74383 77.8478 7.43757 80.9995 7.43757 84.286V94.2103C7.43757 95.5769 8.54854 96.6879 9.91515 96.6879H29.7501C31.1167 96.6879 32.2276 95.5769 32.2276 94.2103V84.286C32.2276 80.9995 30.9214 77.8478 28.6018 75.5236C26.2776 73.2041 23.1261 71.8978 19.8396 71.8978ZM59.5 61.9781C53.5824 61.9781 47.9067 64.3303 43.7229 68.5138C39.5394 72.6974 37.1872 78.3732 37.1872 84.2909V94.2106C37.1872 94.866 37.4475 95.4981 37.9124 95.9631C38.3772 96.428 39.0094 96.6882 39.6649 96.6882H79.3347C79.9902 96.6882 80.6223 96.4279 81.0872 95.9631C81.5522 95.4982 81.8124 94.8661 81.8124 94.2106V84.2909C81.8124 78.3733 79.4603 72.6976 75.2767 68.5138C71.0931 64.3303 65.4176 61.9781 59.5 61.9781Z" fill="#25578F"/>
<path id="Vector_2" fill-rule="evenodd" clip-rule="evenodd" d="M59.4999 17.3525C49.9241 17.3525 42.1473 25.1294 42.1473 34.7099C42.1473 44.2857 49.9242 52.0625 59.4999 52.0625C69.0756 52.0625 76.8525 44.2856 76.8525 34.7099C76.8525 25.1294 69.0756 17.3525 59.4999 17.3525ZM59.4999 22.3125C66.3424 22.3125 71.8973 27.8674 71.8973 34.7099C71.8973 41.5524 66.3424 47.1025 59.4999 47.1025C52.6574 47.1025 47.1025 41.5523 47.1025 34.7099C47.1025 27.8675 52.6574 22.3125 59.4999 22.3125Z" fill="#25578F"/>
<path id="Vector_3" fill-rule="evenodd" clip-rule="evenodd" d="M19.8349 37.1875C12.9924 37.1875 7.4375 42.7424 7.4375 49.5849C7.4375 56.4274 12.9924 61.9776 19.8349 61.9776C26.6774 61.9776 32.2276 56.4273 32.2276 49.5849C32.2276 42.7425 26.6773 37.1875 19.8349 37.1875ZM19.8349 42.1474C23.9395 42.1474 27.2724 45.4757 27.2724 49.5849C27.2724 53.6895 23.9395 57.0224 19.8349 57.0224C15.7257 57.0224 12.3974 53.6895 12.3974 49.5849C12.3974 45.4757 15.7257 42.1474 19.8349 42.1474Z" fill="#25578F"/>
<path id="Vector_4" fill-rule="evenodd" clip-rule="evenodd" d="M99.165 37.1875C92.3225 37.1875 86.7723 42.7424 86.7723 49.5849C86.7723 56.4274 92.3226 61.9776 99.165 61.9776C106.007 61.9776 111.562 56.4273 111.562 49.5849C111.562 42.7425 106.008 37.1875 99.165 37.1875ZM99.165 42.1474C103.274 42.1474 106.603 45.4757 106.603 49.5849C106.603 53.6895 103.274 57.0224 99.165 57.0224C95.0605 57.0224 91.7275 53.6895 91.7275 49.5849C91.7275 45.4757 95.0605 42.1474 99.165 42.1474Z" fill="#25578F"/>
</g>
</g>
</svg>
