<svg width="975" height="113" viewBox="0 0 975 113" fill="none" xmlns="http://www.w3.org/2000/svg">
<mask id="mask0_1267_2843" style="mask-type:alpha" maskUnits="userSpaceOnUse" x="0" y="0" width="1017" height="113">
<rect width="1017" height="113" fill="black" fill-opacity="0.1"/>
</mask>
<g mask="url(#mask0_1267_2843)">
<path opacity="0.5" fill-rule="evenodd" clip-rule="evenodd" d="M-1092.65 30.6706L-1104.21 24L-1406 546.724L-1394.45 553.394L-1092.65 30.6706ZM-73.1682 30.6706L-84.7219 24L-386.516 546.724L-374.963 553.394L-73.1682 30.6706ZM-595.019 24L-583.466 30.6706L-885.26 553.394L-896.814 546.724L-595.019 24ZM436.018 30.6706L424.464 24L122.669 546.724L134.223 553.394L436.018 30.6706ZM-850.354 24L-838.8 30.6706L-1140.59 553.394L-1152.15 546.724L-850.354 24ZM180.684 30.6706L169.13 24L-132.665 546.724L-121.111 553.394L180.684 30.6706ZM-341.167 24L-329.614 30.6706L-631.408 553.394L-642.962 546.724L-341.167 24ZM689.868 30.6706L678.314 24L376.52 546.724L388.074 553.394L689.868 30.6706ZM-975.612 24L-964.058 30.6706L-1265.85 553.394L-1277.41 546.724L-975.612 24ZM55.4253 30.6706L43.8716 24L-257.923 546.724L-246.369 553.394L55.4253 30.6706ZM-466.426 24L-454.872 30.6706L-756.667 553.394L-768.221 546.724L-466.426 24ZM564.611 30.6706L553.057 24L251.263 546.724L262.816 553.394L564.611 30.6706ZM-721.76 24L-710.207 30.6706L-1012 553.394L-1023.55 546.724L-721.76 24ZM309.277 30.6706L297.723 24L-4.07141 546.724L7.4823 553.394L309.277 30.6706ZM-212.574 24L-201.021 30.6706L-502.815 553.394L-514.369 546.724L-212.574 24ZM818.461 30.6706L806.908 24L505.113 546.724L516.667 553.394L818.461 30.6706ZM-1040.46 24L-1028.91 30.6706L-1330.71 553.394L-1342.26 546.724L-1040.46 24ZM-9.42676 30.6706L-20.9805 24L-322.775 546.724L-311.221 553.394L-9.42676 30.6706ZM-531.279 24L-519.725 30.6706L-821.519 553.394L-833.073 546.724L-531.279 24ZM499.759 30.6706L488.205 24L186.41 546.724L197.964 553.394L499.759 30.6706ZM-786.613 24L-775.06 30.6706L-1076.85 553.394L-1088.41 546.724L-786.613 24ZM244.425 30.6706L232.871 24L-68.9237 546.724L-57.37 553.394L244.425 30.6706ZM-277.427 24L-265.873 30.6706L-567.667 553.394L-579.221 546.724L-277.427 24ZM753.609 30.6706L742.055 24L440.26 546.724L451.814 553.394L753.609 30.6706ZM-911.871 24L-900.317 30.6706L-1202.11 553.394L-1213.67 546.724L-911.871 24ZM119.166 30.6706L107.612 24L-194.182 546.724L-182.629 553.394L119.166 30.6706ZM-402.685 24L-391.131 30.6706L-692.926 553.394L-704.479 546.724L-402.685 24ZM628.351 30.6706L616.798 24L315.003 546.724L326.557 553.394L628.351 30.6706ZM-658.019 24L-646.466 30.6706L-948.26 553.394L-959.814 546.724L-658.019 24ZM373.018 30.6706L361.464 24L59.6696 546.724L71.2233 553.394L373.018 30.6706ZM-148.833 24L-137.279 30.6706L-439.074 553.394L-450.628 546.724L-148.833 24ZM882.203 30.6706L870.649 24L568.854 546.724L580.408 553.394L882.203 30.6706ZM-1072.34 24L-1060.78 30.6706L-1362.58 553.394L-1374.13 546.724L-1072.34 24ZM-41.2971 30.6706L-52.8508 24L-354.645 546.724L-343.092 553.394L-41.2971 30.6706ZM-563.149 24L-551.595 30.6706L-853.39 553.394L-864.944 546.724L-563.149 24ZM467.888 30.6706L456.334 24L154.539 546.724L166.093 553.394L467.888 30.6706ZM-818.483 24L-806.93 30.6706L-1108.72 553.394L-1120.28 546.724L-818.483 24ZM212.554 30.6706L201 24L-100.794 546.724L-89.2406 553.394L212.554 30.6706ZM-309.297 24L-297.744 30.6706L-599.538 553.394L-611.092 546.724L-309.297 24ZM721.738 30.6706L710.185 24L408.39 546.724L419.944 553.394L721.738 30.6706ZM-943.742 24L-932.188 30.6706L-1233.98 553.394L-1245.54 546.724L-943.742 24ZM87.2964 30.6706L75.7427 24L-226.052 546.724L-214.498 553.394L87.2964 30.6706ZM-434.556 24L-423.002 30.6706L-724.797 553.394L-736.35 546.724L-434.556 24ZM596.481 30.6706L584.928 24L283.133 546.724L294.687 553.394L596.481 30.6706ZM-689.89 24L-678.336 30.6706L-980.131 553.394L-991.685 546.724L-689.89 24ZM341.147 30.6706L329.594 24L27.799 546.724L39.3527 553.394L341.147 30.6706ZM-180.704 24L-169.15 30.6706L-470.944 553.394L-482.498 546.724L-180.704 24ZM850.332 30.6706L838.778 24L536.984 546.724L548.537 553.394L850.332 30.6706ZM-1008.59 24L-997.041 30.6706L-1298.84 553.394L-1310.39 546.724L-1008.59 24ZM22.4431 30.6706L10.8894 24L-290.905 546.724L-279.351 553.394L22.4431 30.6706ZM-499.408 24L-487.854 30.6706L-789.649 553.394L-801.203 546.724L-499.408 24ZM531.629 30.6706L520.075 24L218.28 546.724L229.834 553.394L531.629 30.6706ZM-754.742 24L-743.189 30.6706L-1044.98 553.394L-1056.54 546.724L-754.742 24ZM276.295 30.6706L264.741 24L-37.0531 546.724L-25.4994 553.394L276.295 30.6706ZM-245.556 24L-234.003 30.6706L-535.797 553.394L-547.351 546.724L-245.556 24ZM785.479 30.6706L773.926 24L472.131 546.724L483.685 553.394L785.479 30.6706ZM-880 24L-868.447 30.6706L-1170.24 553.394L-1181.8 546.724L-880 24ZM151.037 30.6706L139.484 24L-162.311 546.724L-150.757 553.394L151.037 30.6706ZM-370.814 24L-359.261 30.6706L-661.055 553.394L-672.609 546.724L-370.814 24ZM660.222 30.6706L648.668 24L346.873 546.724L358.427 553.394L660.222 30.6706ZM-626.149 24L-614.595 30.6706L-916.39 553.394L-927.943 546.724L-626.149 24ZM404.888 30.6706L393.334 24L91.5399 546.724L103.094 553.394L404.888 30.6706ZM-116.963 24L-105.409 30.6706L-407.204 553.394L-418.758 546.724L-116.963 24ZM914.073 30.6706L902.519 24L600.724 546.724L612.278 553.394L914.073 30.6706Z" fill="black"/>
</g>
</svg>
