<svg width="1728" height="113" viewBox="0 0 1728 113" fill="none" xmlns="http://www.w3.org/2000/svg">
<mask id="mask0_1267_2843" style="mask-type:alpha" maskUnits="userSpaceOnUse" x="-175" y="0" width="1903" height="113">
<rect x="-175" width="1903" height="113" fill="black" fill-opacity="0.1"/>
</mask>
<g mask="url(#mask0_1267_2843)">
<path opacity="0.5" fill-rule="evenodd" clip-rule="evenodd" d="M-381.652 30.6706L-393.205 24L-695 546.724L-683.446 553.394L-381.652 30.6706ZM637.832 30.6706L626.278 24L324.484 546.724L336.037 553.394L637.832 30.6706ZM115.981 24L127.534 30.6706L-174.26 553.394L-185.814 546.724L115.981 24ZM1147.02 30.6706L1135.46 24L833.669 546.724L845.223 553.394L1147.02 30.6706ZM-139.354 24L-127.8 30.6706L-429.595 553.394L-441.148 546.724L-139.354 24ZM891.684 30.6706L880.13 24L578.335 546.724L589.889 553.394L891.684 30.6706ZM369.833 24L381.386 30.6706L79.5917 553.394L68.038 546.724L369.833 24ZM1400.87 30.6706L1389.31 24L1087.52 546.724L1099.07 553.394L1400.87 30.6706ZM-264.612 24L-253.058 30.6706L-554.853 553.394L-566.406 546.724L-264.612 24ZM766.425 30.6706L754.872 24L453.077 546.724L464.631 553.394L766.425 30.6706ZM244.574 24L256.128 30.6706L-45.6668 553.394L-57.2205 546.724L244.574 24ZM1275.61 30.6706L1264.06 24L962.263 546.724L973.816 553.394L1275.61 30.6706ZM-10.7603 24L0.793457 30.6706L-301.001 553.394L-312.555 546.724L-10.7603 24ZM1020.28 30.6706L1008.72 24L706.929 546.724L718.482 553.394L1020.28 30.6706ZM498.426 24L509.979 30.6706L208.185 553.394L196.631 546.724L498.426 24ZM1529.46 30.6706L1517.91 24L1216.11 546.724L1227.67 553.394L1529.46 30.6706ZM-329.465 24L-317.911 30.6706L-619.706 553.394L-631.26 546.724L-329.465 24ZM701.573 30.6706L690.02 24L388.225 546.724L399.779 553.394L701.573 30.6706ZM179.721 24L191.275 30.6706L-110.519 553.394L-122.073 546.724L179.721 24ZM1210.76 30.6706L1199.2 24L897.41 546.724L908.964 553.394L1210.76 30.6706ZM-75.6132 24L-64.0595 30.6706L-365.854 553.394L-377.408 546.724L-75.6132 24ZM955.425 30.6706L943.871 24L642.076 546.724L653.63 553.394L955.425 30.6706ZM433.573 24L445.127 30.6706L143.333 553.394L131.779 546.724L433.573 24ZM1464.61 30.6706L1453.05 24L1151.26 546.724L1162.81 553.394L1464.61 30.6706ZM-200.871 24L-189.317 30.6706L-491.112 553.394L-502.666 546.724L-200.871 24ZM830.166 30.6706L818.612 24L516.818 546.724L528.371 553.394L830.166 30.6706ZM308.315 24L319.869 30.6706L18.0743 553.394L6.52057 546.724L308.315 24ZM1339.35 30.6706L1327.8 24L1026 546.724L1037.56 553.394L1339.35 30.6706ZM52.9808 24L64.5345 30.6706L-237.26 553.394L-248.814 546.724L52.9808 24ZM1084.02 30.6706L1072.46 24L770.67 546.724L782.223 553.394L1084.02 30.6706ZM562.167 24L573.721 30.6706L271.926 553.394L260.372 546.724L562.167 24ZM1593.2 30.6706L1581.65 24L1279.85 546.724L1291.41 553.394L1593.2 30.6706ZM-361.335 24L-349.781 30.6706L-651.576 553.394L-663.13 546.724L-361.335 24ZM669.703 30.6706L658.149 24L356.355 546.724L367.908 553.394L669.703 30.6706ZM147.851 24L159.405 30.6706L-142.39 553.394L-153.944 546.724L147.851 24ZM1178.89 30.6706L1167.33 24L865.539 546.724L877.093 553.394L1178.89 30.6706ZM-107.483 24L-95.9296 30.6706L-397.724 553.394L-409.278 546.724L-107.483 24ZM923.554 30.6706L912 24L610.206 546.724L621.759 553.394L923.554 30.6706ZM401.703 24L413.256 30.6706L111.462 553.394L99.9081 546.724L401.703 24ZM1432.74 30.6706L1421.18 24L1119.39 546.724L1130.94 553.394L1432.74 30.6706ZM-232.742 24L-221.188 30.6706L-522.983 553.394L-534.536 546.724L-232.742 24ZM798.296 30.6706L786.743 24L484.948 546.724L496.502 553.394L798.296 30.6706ZM276.444 24L287.998 30.6706L-13.7967 553.394L-25.3504 546.724L276.444 24ZM1307.48 30.6706L1295.93 24L994.133 546.724L1005.69 553.394L1307.48 30.6706ZM21.11 24L32.6638 30.6706L-269.131 553.394L-280.685 546.724L21.11 24ZM1052.15 30.6706L1040.59 24L738.799 546.724L750.353 553.394L1052.15 30.6706ZM530.296 24L541.85 30.6706L240.056 553.394L228.502 546.724L530.296 24ZM1561.33 30.6706L1549.78 24L1247.98 546.724L1259.54 553.394L1561.33 30.6706ZM-297.594 24L-286.041 30.6706L-587.835 553.394L-599.389 546.724L-297.594 24ZM733.443 30.6706L721.889 24L420.095 546.724L431.649 553.394L733.443 30.6706ZM211.592 24L223.146 30.6706L-78.6489 553.394L-90.2026 546.724L211.592 24ZM1242.63 30.6706L1231.07 24L929.28 546.724L940.834 553.394L1242.63 30.6706ZM-43.7425 24L-32.1888 30.6706L-333.983 553.394L-345.537 546.724L-43.7425 24ZM987.295 30.6706L975.741 24L673.947 546.724L685.501 553.394L987.295 30.6706ZM465.444 24L476.997 30.6706L175.203 553.394L163.649 546.724L465.444 24ZM1496.48 30.6706L1484.93 24L1183.13 546.724L1194.68 553.394L1496.48 30.6706ZM-169 24L-157.447 30.6706L-459.241 553.394L-470.795 546.724L-169 24ZM862.037 30.6706L850.484 24L548.689 546.724L560.243 553.394L862.037 30.6706ZM340.186 24L351.739 30.6706L49.9447 553.394L38.391 546.724L340.186 24ZM1371.22 30.6706L1359.67 24L1057.87 546.724L1069.43 553.394L1371.22 30.6706ZM84.8511 24L96.4048 30.6706L-205.39 553.394L-216.943 546.724L84.8511 24ZM1115.89 30.6706L1104.33 24L802.54 546.724L814.094 553.394L1115.89 30.6706ZM594.037 24L605.591 30.6706L303.796 553.394L292.242 546.724L594.037 24ZM1625.07 30.6706L1613.52 24L1311.72 546.724L1323.28 553.394L1625.07 30.6706Z" fill="black"/>
</g>
</svg>
