<svg width="22" height="20" viewBox="0 0 22 20" fill="none" xmlns="http://www.w3.org/2000/svg">
<path fill-rule="evenodd" clip-rule="evenodd" d="M19.4801 4.97538C19.4938 5.18031 19.4938 5.38539 19.4938 5.59018C19.4938 11.8396 15.1105 19.0403 7.09933 19.0403C4.6311 19.0403 2.33835 18.2646 0.409668 16.9182C0.760363 16.962 1.09756 16.9767 1.46175 16.9767C3.49816 16.9767 5.37299 16.2302 6.86985 14.9571C4.95466 14.913 3.34981 13.552 2.79677 11.6786C3.06661 11.7224 3.33631 11.7517 3.61965 11.7517C4.01057 11.7517 4.40189 11.693 4.76609 11.5909C2.77004 11.1516 1.27291 9.2492 1.27291 6.95131V6.89271C1.85267 7.24398 2.5272 7.46356 3.24195 7.49271C2.06865 6.64369 1.2999 5.19496 1.2999 3.55566C1.2999 2.67778 1.51561 1.87255 1.8933 1.17016C4.0377 4.03876 7.26118 5.912 10.8756 6.11708C10.8082 5.76581 10.7677 5.39989 10.7677 5.03398C10.7677 2.42876 12.7099 0.306641 15.124 0.306641C16.3782 0.306641 17.5111 0.87749 18.307 1.79946C19.2913 1.59453 20.2354 1.19917 21.0718 0.657762C20.7478 1.75566 20.06 2.67778 19.1566 3.26298C20.0333 3.16074 20.8828 2.89706 21.665 2.53115C21.0718 3.46791 20.3298 4.30199 19.4801 4.97538Z" fill="white"/>
</svg>
